<mxfile host="app.diagrams.net" modified="2020-07-23T14:40:38.630Z" agent="5.0 (Windows NT 10.0; Win64; x64) AppleWebKit/537.36 (KHTML, like Gecko) Chrome/84.0.4147.89 Safari/537.36" etag="4gIGYtG6ly30HPyF_mPq" version="13.5.1" type="github">
  <diagram id="kgpKYQtTHZ0yAKxKKP6v" name="Page-1">
    <mxGraphModel dx="563" dy="587" grid="1" gridSize="10" guides="1" tooltips="1" connect="1" arrows="1" fold="1" page="1" pageScale="1" pageWidth="850" pageHeight="1100" math="0" shadow="0">
      <root>
        <mxCell id="0" />
        <mxCell id="1" parent="0" />
        <mxCell id="3nuBFxr9cyL0pnOWT2aG-5" value="System" style="shape=umlLifeline;perimeter=lifelinePerimeter;container=1;collapsible=0;recursiveResize=0;rounded=0;shadow=0;strokeWidth=1;" parent="1" vertex="1">
          <mxGeometry x="480" y="80" width="100" height="450" as="geometry" />
        </mxCell>
        <mxCell id="xDVviQ2sBW0ZlNn6IcOV-7" value="Avocat" style="shape=umlLifeline;participant=umlActor;perimeter=lifelinePerimeter;whiteSpace=wrap;html=1;container=1;collapsible=0;recursiveResize=0;verticalAlign=top;spacingTop=36;outlineConnect=0;size=40;" vertex="1" parent="1">
          <mxGeometry x="270" y="80" width="20" height="450" as="geometry" />
        </mxCell>
        <mxCell id="xDVviQ2sBW0ZlNn6IcOV-11" value="demande auth" style="html=1;verticalAlign=bottom;endArrow=block;" edge="1" parent="1" source="xDVviQ2sBW0ZlNn6IcOV-7" target="3nuBFxr9cyL0pnOWT2aG-5">
          <mxGeometry x="-0.036" width="80" relative="1" as="geometry">
            <mxPoint x="400" y="320" as="sourcePoint" />
            <mxPoint x="480" y="320" as="targetPoint" />
            <Array as="points">
              <mxPoint x="320" y="160" />
              <mxPoint x="380" y="160" />
              <mxPoint x="450" y="160" />
              <mxPoint x="490" y="160" />
            </Array>
            <mxPoint as="offset" />
          </mxGeometry>
        </mxCell>
        <mxCell id="xDVviQ2sBW0ZlNn6IcOV-12" value="&#39;Login password&#39;" style="html=1;verticalAlign=bottom;endArrow=open;dashed=1;endSize=8;exitX=0.478;exitY=0.265;exitDx=0;exitDy=0;exitPerimeter=0;" edge="1" parent="1" source="3nuBFxr9cyL0pnOWT2aG-5" target="xDVviQ2sBW0ZlNn6IcOV-7">
          <mxGeometry relative="1" as="geometry">
            <mxPoint x="520" y="200" as="sourcePoint" />
            <mxPoint x="440" y="200" as="targetPoint" />
            <mxPoint as="offset" />
          </mxGeometry>
        </mxCell>
        <mxCell id="xDVviQ2sBW0ZlNn6IcOV-13" value="" style="html=1;points=[];perimeter=orthogonalPerimeter;" vertex="1" parent="1">
          <mxGeometry x="525" y="160" width="10" height="40" as="geometry" />
        </mxCell>
        <mxCell id="xDVviQ2sBW0ZlNn6IcOV-16" value="frame" style="shape=umlFrame;whiteSpace=wrap;html=1;" vertex="1" parent="1">
          <mxGeometry x="210" y="50" width="410" height="550" as="geometry" />
        </mxCell>
        <mxCell id="xDVviQ2sBW0ZlNn6IcOV-17" value="" style="ellipse;html=1;shape=startState;fillColor=#000000;strokeColor=#ff0000;" vertex="1" parent="1">
          <mxGeometry x="680" y="110" width="30" height="30" as="geometry" />
        </mxCell>
        <mxCell id="xDVviQ2sBW0ZlNn6IcOV-18" value="" style="edgeStyle=orthogonalEdgeStyle;html=1;verticalAlign=bottom;endArrow=open;endSize=8;strokeColor=#ff0000;" edge="1" source="xDVviQ2sBW0ZlNn6IcOV-17" parent="1">
          <mxGeometry relative="1" as="geometry">
            <mxPoint x="695" y="200" as="targetPoint" />
          </mxGeometry>
        </mxCell>
        <mxCell id="xDVviQ2sBW0ZlNn6IcOV-19" value="" style="html=1;points=[];perimeter=orthogonalPerimeter;" vertex="1" parent="1">
          <mxGeometry x="690" y="265" width="10" height="80" as="geometry" />
        </mxCell>
        <mxCell id="xDVviQ2sBW0ZlNn6IcOV-20" value="dispatch" style="html=1;verticalAlign=bottom;startArrow=oval;endArrow=block;startSize=8;" edge="1" target="xDVviQ2sBW0ZlNn6IcOV-19" parent="1">
          <mxGeometry relative="1" as="geometry">
            <mxPoint x="630" y="265" as="sourcePoint" />
          </mxGeometry>
        </mxCell>
        <mxCell id="xDVviQ2sBW0ZlNn6IcOV-21" value="" style="html=1;points=[];perimeter=orthogonalPerimeter;" vertex="1" parent="1">
          <mxGeometry x="700" y="410" width="10" height="80" as="geometry" />
        </mxCell>
        <mxCell id="xDVviQ2sBW0ZlNn6IcOV-22" value="dispatch" style="html=1;verticalAlign=bottom;endArrow=block;entryX=0;entryY=0;" edge="1" target="xDVviQ2sBW0ZlNn6IcOV-21" parent="1">
          <mxGeometry relative="1" as="geometry">
            <mxPoint x="630" y="410" as="sourcePoint" />
          </mxGeometry>
        </mxCell>
        <mxCell id="xDVviQ2sBW0ZlNn6IcOV-23" value="return" style="html=1;verticalAlign=bottom;endArrow=open;dashed=1;endSize=8;exitX=0;exitY=0.95;" edge="1" source="xDVviQ2sBW0ZlNn6IcOV-21" parent="1">
          <mxGeometry relative="1" as="geometry">
            <mxPoint x="630" y="486" as="targetPoint" />
          </mxGeometry>
        </mxCell>
      </root>
    </mxGraphModel>
  </diagram>
</mxfile>
